<!--?xml version="1.0" standalone="no"?-->
              <svg id="sw-js-blob-svg" viewBox="0 0 100 100" xmlns="http://www.w3.org/2000/svg" version="1.1">
                    <defs> 
                        <linearGradient id="sw-gradient" x1="0" x2="1" y1="1" y2="0">
                            <stop id="stop1" stop-color="rgba(0, 169, 222, 1)" offset="0%"></stop>
                            <stop id="stop2" stop-color="rgba(0, 169, 222, 1)" offset="100%"></stop>
                        </linearGradient>
                    </defs>
                <path fill="url(#sw-gradient)" d="M23.9,-32.1C29.4,-28.9,31.2,-19.8,32.2,-11.7C33.1,-3.6,33,3.6,31.2,10.3C29.3,17.1,25.5,23.5,20,26.9C14.5,30.3,7.2,30.8,0.5,30.1C-6.2,29.4,-12.4,27.5,-17.6,24C-22.7,20.4,-26.8,15.2,-31.3,8.5C-35.7,1.8,-40.6,-6.5,-40.1,-14.7C-39.7,-22.9,-34.1,-31,-26.5,-33.5C-19,-36,-9.5,-32.8,-0.1,-32.6C9.2,-32.4,18.4,-35.2,23.9,-32.1Z" width="100%" height="100%" transform="translate(50 50)" stroke-width="0" style="transition: all 0.3s ease 0s;" stroke="url(#sw-gradient)"></path>
              </svg>