<svg xmlns="http://www.w3.org/2000/svg" xmlns:xlink="http://www.w3.org/1999/xlink" width="900" zoomAndPan="magnify" viewBox="0 0 675 449.999984" height="600" preserveAspectRatio="xMidYMid meet" version="1.0"><defs><clipPath id="fa2b5d2283"><path d="M 30.082031 10.15625 L 630 10.15625 L 630 432 L 30.082031 432 Z M 30.082031 10.15625 " clip-rule="nonzero"/></clipPath><clipPath id="69850d5fb3"><path d="M 107 10.15625 L 564 10.15625 L 564 427 L 107 427 Z M 107 10.15625 " clip-rule="nonzero"/></clipPath></defs><g clip-path="url(#fa2b5d2283)"><path fill="#ffffff" d="M 565.667969 383.808594 L 553.480469 347.265625 C 553.480469 347.265625 553.507812 347.242188 553.554688 347.191406 C 553.578125 347.167969 553.601562 347.132812 553.628906 347.105469 C 553.664062 347.070312 553.699219 347.035156 553.75 346.972656 C 553.796875 346.914062 553.871094 346.828125 553.941406 346.753906 C 553.992188 346.707031 554.015625 346.667969 554.066406 346.609375 C 554.148438 346.511719 554.246094 346.390625 554.355469 346.269531 C 554.40625 346.207031 554.441406 346.160156 554.488281 346.097656 C 554.597656 345.964844 554.722656 345.820312 554.84375 345.660156 C 554.902344 345.589844 554.953125 345.527344 555.011719 345.457031 C 555.144531 345.285156 555.28125 345.113281 555.414062 344.921875 C 555.472656 344.835938 555.546875 344.75 555.609375 344.664062 C 555.753906 344.472656 555.910156 344.265625 556.070312 344.046875 C 556.140625 343.949219 556.203125 343.851562 556.277344 343.753906 C 556.433594 343.523438 556.605469 343.292969 556.773438 343.039062 C 556.847656 342.929688 556.917969 342.820312 557.003906 342.710938 C 557.1875 342.453125 557.355469 342.175781 557.539062 341.894531 C 557.613281 341.773438 557.695312 341.652344 557.769531 341.53125 C 557.953125 341.238281 558.148438 340.949219 558.328125 340.632812 C 558.414062 340.5 558.488281 340.363281 558.570312 340.230469 C 558.765625 339.914062 558.960938 339.585938 559.15625 339.246094 C 559.238281 339.101562 559.3125 338.96875 559.398438 338.820312 C 559.59375 338.46875 559.785156 338.117188 559.992188 337.753906 C 560.078125 337.609375 560.152344 337.449219 560.234375 337.292969 C 560.429688 336.914062 560.636719 336.539062 560.832031 336.136719 C 560.902344 335.992188 560.976562 335.832031 561.0625 335.675781 C 561.269531 335.261719 561.464844 334.851562 561.65625 334.414062 C 561.71875 334.265625 561.789062 334.109375 561.851562 333.964844 C 562.058594 333.511719 562.253906 333.050781 562.460938 332.578125 C 562.507812 332.457031 562.554688 332.335938 562.605469 332.214844 C 562.8125 331.703125 563.019531 331.179688 563.222656 330.660156 C 567.550781 319.070312 569.285156 302.390625 557.210938 283.71875 C 552.824219 276.941406 547.917969 269.335938 542.851562 261.464844 C 543.871094 263.042969 544.878906 264.621094 545.890625 266.175781 L 550.261719 266.175781 L 550.261719 10.15625 L 107.367188 10.15625 L 107.367188 254.234375 L 31.890625 254.234375 L 65.113281 376.324219 L 65.113281 383.792969 L 30.226562 383.792969 L 30.226562 385.433594 C 30.226562 391.507812 35.15625 396.441406 41.230469 396.441406 L 303.195312 396.441406 C 310.992188 402.757812 322.605469 411.578125 337.535156 421.175781 C 366.605469 439.859375 394.011719 426.992188 394.011719 426.992188 L 452.410156 426.992188 L 452.433594 427.066406 L 452.652344 426.992188 L 580.0625 426.992188 L 569.882812 396.453125 L 618.886719 396.453125 C 624.960938 396.453125 629.894531 391.519531 629.894531 385.445312 L 629.894531 383.808594 Z M 306.632812 358.175781 C 302.890625 355.746094 297.542969 352.597656 290.195312 348.917969 C 280.730469 344.179688 267.722656 344.351562 256.667969 346.207031 L 233.792969 262.15625 L 234.882812 266.164062 L 357.910156 266.164062 C 351.25 290.945312 348.054688 318.753906 342.929688 360.117188 L 310.117188 351.394531 Z M 270.261719 375.921875 C 270.539062 376.070312 270.867188 376.203125 271.160156 376.335938 L 264.855469 376.335938 L 263.832031 372.570312 C 265.886719 373.675781 268.050781 374.804688 270.261719 375.921875 Z M 270.261719 375.921875 " fill-opacity="1" fill-rule="nonzero"/></g><path fill="#00a9de" d="M 580.0625 426.992188 L 394.011719 426.992188 C 394.011719 426.992188 366.605469 439.871094 337.535156 421.175781 C 308.464844 402.492188 291.859375 386.710938 291.859375 386.710938 L 310.128906 351.40625 L 342.941406 360.128906 C 348.761719 313.203125 352.078125 283.71875 360.800781 256.3125 C 369.523438 228.90625 387.792969 193.601562 387.792969 193.601562 L 412.296875 185.292969 L 497.429688 190.6875 C 497.429688 190.6875 534.386719 248.414062 557.234375 283.707031 C 580.074219 319.007812 553.492188 347.242188 553.492188 347.242188 Z M 141.9375 131.320312 C 141.9375 131.320312 143.191406 167.449219 163.539062 187.382812 L 235.382812 187.382812 C 235.382812 187.382812 217.523438 166.621094 212.957031 130.492188 Z M 174.738281 42.855469 C 174.738281 42.855469 175.992188 78.984375 196.339844 98.921875 L 268.183594 98.921875 C 268.183594 98.921875 250.324219 78.160156 245.757812 42.03125 Z M 198.101562 299.5 C 201.210938 299.5 203.519531 296.605469 202.8125 293.570312 L 200.164062 282.078125 C 199.65625 279.878906 197.699219 278.324219 195.453125 278.324219 L 147.234375 278.324219 C 144.125 278.324219 141.816406 281.214844 142.523438 284.253906 L 145.171875 295.746094 C 145.679688 297.945312 147.636719 299.5 149.882812 299.5 Z M 207.222656 314.464844 C 206.714844 312.265625 204.757812 310.710938 202.507812 310.710938 L 154.304688 310.710938 C 151.195312 310.710938 148.886719 313.601562 149.59375 316.640625 L 152.242188 328.132812 C 152.75 330.332031 154.707031 331.886719 156.953125 331.886719 L 205.15625 331.886719 C 208.269531 331.886719 210.574219 328.996094 209.871094 325.957031 Z M 488.902344 51.578125 C 492.691406 51.578125 495.753906 48.507812 495.753906 44.726562 C 495.753906 40.949219 492.679688 37.875 488.902344 37.875 C 485.125 37.875 482.050781 40.949219 482.050781 44.726562 C 482.050781 48.507812 485.125 51.578125 488.902344 51.578125 Z M 493.261719 96.429688 C 493.261719 100.21875 496.335938 103.28125 500.113281 103.28125 C 503.894531 103.28125 506.964844 100.207031 506.964844 96.429688 C 506.964844 92.640625 503.894531 89.578125 500.113281 89.578125 C 496.335938 89.578125 493.261719 92.640625 493.261719 96.429688 Z M 431.125 56.488281 C 434.914062 56.488281 437.976562 53.414062 437.976562 49.636719 C 437.976562 45.84375 434.902344 42.785156 431.125 42.785156 C 427.335938 42.785156 424.273438 45.859375 424.273438 49.636719 C 424.273438 53.425781 427.347656 56.488281 431.125 56.488281 Z M 431.125 56.488281 " fill-opacity="1" fill-rule="nonzero"/><path fill="#001b26" d="M 231.640625 254.234375 L 31.890625 254.234375 L 65.113281 376.324219 L 65.113281 386.285156 L 292.078125 386.285156 L 297.242188 376.324219 L 264.878906 376.324219 Z M 38.945312 260.878906 L 225.410156 260.878906 L 256.144531 369.679688 L 69.683594 369.679688 Z M 398.773438 275.917969 L 357.664062 265.53125 L 358.128906 263.710938 L 399.238281 274.097656 Z M 421.554688 328.230469 L 350.960938 306.214844 L 351.519531 304.417969 L 422.113281 326.429688 Z M 414.214844 368.367188 L 413.679688 370.175781 L 345.164062 349.828125 L 345.699219 348.019531 Z M 342.515625 363.835938 L 378.234375 429.449219 L 376.582031 430.347656 L 340.863281 364.734375 Z M 327.902344 357.433594 L 329.738281 357.871094 L 318.523438 405.210938 L 316.691406 404.773438 Z M 421.273438 317.855469 L 420.75 316.042969 L 527.898438 284.898438 L 528.421875 286.707031 Z M 546.667969 339.039062 L 414.605469 374.34375 L 414.117188 372.519531 L 546.179688 337.21875 Z M 566.648438 390.523438 L 452.445312 427.066406 L 451.875 425.269531 L 566.078125 388.726562 Z M 446.871094 246.703125 L 447.488281 248.488281 L 398.070312 265.519531 L 397.449219 263.734375 Z M 372.328125 229.792969 L 371.671875 228.019531 L 415.699219 211.824219 L 416.351562 213.597656 Z M 511.484375 240.226562 L 509.917969 239.171875 L 518.640625 226.292969 L 520.207031 227.351562 Z M 528.964844 279.222656 L 527.339844 278.265625 L 539.378906 257.914062 L 541.003906 258.875 Z M 548.949219 323.550781 L 547.214844 322.8125 L 560.089844 292.914062 L 561.828125 293.65625 Z M 310.128906 130.480469 C 314.699219 166.609375 332.554688 187.371094 332.554688 187.371094 L 260.710938 187.371094 C 240.363281 167.4375 239.113281 131.308594 239.113281 131.308594 Z M 71.675781 313.613281 L 69.027344 302.121094 C 68.320312 299.085938 70.628906 296.195312 73.738281 296.195312 L 121.941406 296.195312 C 124.203125 296.195312 126.160156 297.75 126.65625 299.949219 L 129.304688 311.441406 C 130.007812 314.476562 127.703125 317.367188 124.589844 317.367188 L 76.386719 317.367188 C 74.128906 317.355469 72.171875 315.800781 71.675781 313.613281 Z M 499.203125 89.785156 L 490.480469 51.785156 L 492.316406 51.359375 L 501.039062 89.359375 Z M 437.917969 50.023438 L 437.734375 48.152344 L 481.964844 43.792969 L 482.148438 45.664062 Z M 437.917969 50.023438 " fill-opacity="1" fill-rule="nonzero"/><path fill="#e48c63" d="M 433.46875 183.640625 L 425.757812 186.15625 L 412.285156 185.304688 L 393.585938 191.648438 L 384.867188 168.285156 C 384.867188 168.285156 377.394531 169.113281 368.671875 168.699219 C 359.949219 168.285156 347.074219 157.488281 345.421875 137.550781 L 337.949219 134.648438 L 346.257812 125.925781 C 346.257812 125.925781 342.105469 93.113281 363.289062 80.664062 C 384.464844 68.199219 417.277344 71.113281 425.171875 98.933594 C 433.070312 126.753906 411.882812 152.917969 411.882812 152.917969 Z M 236.207031 352.660156 C 229.152344 357.226562 228.3125 365.535156 225.410156 370.929688 C 222.503906 376.324219 227.898438 377.160156 230.804688 373.421875 C 233.707031 369.679688 238.273438 361.792969 238.273438 361.792969 C 238.273438 361.792969 238.273438 366.773438 237.023438 373.007812 C 235.769531 379.238281 242.003906 378.402344 242.839844 374.257812 C 243.667969 370.105469 246.996094 362.632812 246.996094 362.632812 C 246.996094 362.632812 257.796875 369.691406 270.246094 375.921875 C 276.320312 378.960938 285.640625 381.5 293.609375 383.308594 L 306.621094 358.1875 C 302.878906 355.757812 297.53125 352.609375 290.183594 348.929688 C 272.75 340.207031 243.265625 348.089844 236.207031 352.660156 Z M 236.207031 352.660156 " fill-opacity="1" fill-rule="nonzero"/><g clip-path="url(#69850d5fb3)"><path fill="#191e20" d="M 233.609375 261.460938 L 359.234375 261.460938 C 358.785156 263.019531 358.332031 264.597656 357.921875 266.175781 L 234.882812 266.175781 Z M 545.171875 261.460938 L 542.863281 261.460938 C 543.882812 263.042969 544.894531 264.621094 545.902344 266.175781 L 550.273438 266.175781 L 550.273438 10.15625 L 107.367188 10.15625 L 107.367188 254.234375 L 112.832031 254.234375 L 112.832031 15.425781 L 545.171875 15.425781 Z M 486.410156 157.476562 C 479.875 143.773438 481.113281 126.328125 462.734375 121.347656 C 444.355469 116.367188 436.265625 118.238281 432.523438 101.726562 C 428.78125 85.21875 417.566406 64.347656 383.625 67.46875 C 349.671875 70.578125 349.988281 95.8125 349.988281 95.8125 L 373.96875 105.46875 C 372.71875 124.152344 380.820312 127.273438 380.820312 127.273438 L 382.691406 119.804688 C 382.691406 119.804688 398.265625 117.933594 397.949219 129.765625 C 397.632812 141.597656 384.5625 142.53125 384.5625 142.53125 C 385.496094 159.042969 395.457031 164.339844 405.734375 176.171875 C 416.011719 188.003906 404.800781 202.023438 418.820312 213.234375 C 432.839844 224.449219 444.988281 215.105469 446.542969 238.464844 C 448.097656 261.828125 460.558594 266.492188 460.558594 266.492188 L 527.519531 196.726562 C 520.367188 153.746094 492.960938 171.179688 486.410156 157.476562 Z M 353.730469 127.992188 C 355.5625 127.992188 357.046875 126.507812 357.046875 124.675781 C 357.046875 122.839844 355.5625 121.359375 353.730469 121.359375 C 351.894531 121.359375 350.414062 122.839844 350.414062 124.675781 C 350.414062 126.507812 351.894531 127.992188 353.730469 127.992188 Z M 349.175781 108.722656 L 350.207031 110.304688 C 350.472656 110.132812 356.828125 106.171875 363.023438 112.660156 L 364.382812 111.359375 C 357.070312 103.707031 349.246094 108.664062 349.175781 108.722656 Z M 350.730469 145.011719 L 350.511719 146.882812 C 350.570312 146.894531 350.984375 146.929688 351.664062 146.929688 C 353.585938 146.929688 357.582031 146.566406 361.433594 143.917969 L 360.363281 142.363281 C 355.746094 145.546875 350.777344 145.023438 350.730469 145.011719 Z M 274.609375 130.382812 L 276.492188 130.382812 L 276.492188 114.496094 C 276.492188 113.972656 276.066406 113.546875 275.542969 113.546875 L 224.15625 113.546875 L 224.15625 98.921875 L 222.273438 98.921875 L 222.273438 113.546875 L 176.804688 113.546875 C 176.28125 113.546875 175.855469 113.972656 175.855469 114.496094 L 175.855469 130.382812 L 177.738281 130.382812 L 177.738281 115.441406 L 274.585938 115.441406 L 274.585938 130.382812 Z M 532.308594 294.105469 L 553.480469 347.265625 C 553.480469 347.265625 559.386719 340.984375 563.238281 330.660156 Z M 134.007812 290.484375 L 141.527344 290.484375 L 141.527344 288.601562 L 132.804688 288.601562 C 132.511719 288.601562 132.246094 288.734375 132.0625 288.964844 C 131.878906 289.195312 131.820312 289.488281 131.894531 289.769531 L 135.453125 304.382812 L 128.234375 304.382812 L 128.234375 306.265625 L 135.902344 306.265625 L 139.777344 322.15625 C 139.875 322.582031 140.261719 322.871094 140.6875 322.871094 L 149.824219 322.871094 L 149.824219 320.988281 L 141.429688 320.988281 Z M 385.121094 168.917969 L 389.164062 179.753906 L 394.230469 167.460938 Z M 394.011719 426.992188 L 421.429688 426.992188 L 414.773438 386.089844 C 414.773438 386.089844 411.042969 413.496094 394.011719 426.992188 Z M 394.011719 426.992188 " fill-opacity="1" fill-rule="nonzero"/></g></svg>