<svg xmlns="http://www.w3.org/2000/svg" xmlns:xlink="http://www.w3.org/1999/xlink" width="900" zoomAndPan="magnify" viewBox="0 0 675 449.999984" height="600" preserveAspectRatio="xMidYMid meet" version="1.0"><defs><clipPath id="1468b4a77d"><path d="M 537 0 L 675 0 L 675 257 L 537 257 Z M 537 0 " clip-rule="nonzero"/></clipPath><clipPath id="2257ae119e"><path d="M 319.097656 61.613281 L 740.179688 -359.46875 L 1161.261719 61.613281 L 740.179688 482.695312 Z M 319.097656 61.613281 " clip-rule="nonzero"/></clipPath><clipPath id="b775cd5190"><path d="M 319.097656 61.613281 L 528.046875 -147.339844 L 900.335938 224.953125 L 691.386719 433.902344 Z M 319.097656 61.613281 " clip-rule="nonzero"/></clipPath><clipPath id="46301decdf"><path d="M 319.097656 61.613281 L 740.179688 -359.46875 L 1161.261719 61.613281 L 740.179688 482.695312 Z M 319.097656 61.613281 " clip-rule="nonzero"/></clipPath><clipPath id="38b8ff6dca"><path d="M 679.542969 -97.558594 C 714.492188 -76.082031 735.546875 -38.183594 767.128906 -32.710938 C 799.128906 -27.65625 841.660156 -55.027344 873.660156 -54.1875 C 906.085938 -52.921875 927.558594 -23.867188 927.980469 6.871094 C 928.824219 37.1875 908.609375 69.191406 902.714844 107.929688 C 896.820312 145.828125 905.664062 190.882812 886.714844 205.621094 C 868.1875 220.78125 821.445312 206.042969 781.863281 216.992188 C 741.441406 227.9375 708.597656 264.996094 692.59375 254.046875 C 676.171875 243.519531 676.59375 184.144531 659.75 151.300781 C 642.90625 118.457031 609.222656 111.71875 584.378906 91.929688 C 559.535156 72.136719 543.113281 38.03125 538.902344 -0.707031 C 534.691406 -40.289062 541.847656 -84.503906 570.0625 -104.292969 C 597.429688 -124.085938 645.433594 -119.03125 679.542969 -97.558594 Z M 679.542969 -97.558594 " clip-rule="nonzero"/></clipPath><clipPath id="107e1c4709"><path d="M 578 0 L 675 0 L 675 139 L 578 139 Z M 578 0 " clip-rule="nonzero"/></clipPath><clipPath id="4198f72d2b"><path d="M 441.652344 17.496094 L 704.695312 -245.546875 L 967.742188 17.496094 L 704.695312 280.539062 Z M 441.652344 17.496094 " clip-rule="nonzero"/></clipPath><clipPath id="b6752ef1ae"><path d="M 441.652344 17.496094 L 567.339844 -108.191406 L 830.386719 154.851562 L 704.695312 280.539062 Z M 441.652344 17.496094 " clip-rule="nonzero"/></clipPath><clipPath id="803aca9317"><path d="M 441.652344 17.496094 L 704.695312 -245.546875 L 967.742188 17.496094 L 704.695312 280.539062 Z M 441.652344 17.496094 " clip-rule="nonzero"/></clipPath><clipPath id="d4ba867ee0"><path d="M 666.820312 -81.933594 C 688.652344 -68.519531 701.804688 -44.847656 721.53125 -41.425781 C 741.523438 -38.269531 768.089844 -55.367188 788.082031 -54.839844 C 808.335938 -54.050781 821.75 -35.902344 822.015625 -16.699219 C 822.539062 2.238281 809.914062 22.230469 806.230469 46.429688 C 802.550781 70.105469 808.074219 98.25 796.234375 107.457031 C 784.660156 116.925781 755.464844 107.71875 730.738281 114.558594 C 705.484375 121.398438 684.96875 144.546875 674.972656 137.707031 C 664.714844 131.128906 664.976562 94.042969 654.457031 73.523438 C 643.933594 53.007812 622.890625 48.796875 607.371094 36.433594 C 591.851562 24.070312 581.59375 2.765625 578.960938 -21.433594 C 576.332031 -46.160156 580.804688 -73.78125 598.425781 -86.144531 C 615.523438 -98.507812 645.511719 -95.351562 666.820312 -81.933594 Z M 666.820312 -81.933594 " clip-rule="nonzero"/></clipPath></defs><rect x="-67.5" width="810" fill="#ffffff" y="-44.999998" height="539.99998" fill-opacity="1"/><path fill="#00a9de" d="M 0 387 L 14.101562 391.273438 C 28.273438 395.476562 56.476562 404.023438 84.601562 400.648438 C 112.726562 397.273438 140.773438 381.976562 168.898438 381.898438 C 197.023438 381.75 225.226562 396.75 253.351562 400.5 C 281.476562 404.25 309.523438 396.75 337.648438 381.75 C 365.773438 366.75 393.976562 344.25 422.101562 348.976562 C 450.226562 353.773438 478.273438 385.726562 506.398438 379.875 C 534.523438 374.023438 562.726562 330.226562 590.851562 312 C 618.976562 293.773438 647.023438 300.976562 660.976562 304.648438 L 675 308.25 L 675 450.75 L 660.976562 450.75 C 647.023438 450.75 618.976562 450.75 590.851562 450.75 C 562.726562 450.75 534.523438 450.75 506.398438 450.75 C 478.273438 450.75 450.226562 450.75 422.101562 450.75 C 393.976562 450.75 365.773438 450.75 337.648438 450.75 C 309.523438 450.75 281.476562 450.75 253.351562 450.75 C 225.226562 450.75 197.023438 450.75 168.898438 450.75 C 140.773438 450.75 112.726562 450.75 84.601562 450.75 C 56.476562 450.75 28.273438 450.75 14.101562 450.75 L 0 450.75 Z M 0 387 " fill-opacity="1" fill-rule="nonzero"/><path fill="#005f7e" d="M 0 340.5 L 14.101562 342.523438 C 28.273438 344.476562 56.476562 348.523438 84.601562 358.351562 C 112.726562 368.25 140.773438 384 168.898438 389.398438 C 197.023438 394.726562 225.226562 389.773438 253.351562 395.023438 C 281.476562 400.273438 309.523438 415.726562 337.648438 410.851562 C 365.773438 405.976562 393.976562 380.773438 422.101562 371.25 C 450.226562 361.726562 478.273438 368.023438 506.398438 380.101562 C 534.523438 392.25 562.726562 410.25 590.851562 405.898438 C 618.976562 401.476562 647.023438 374.773438 660.976562 361.351562 L 675 348 L 675 450.75 L 660.976562 450.75 C 647.023438 450.75 618.976562 450.75 590.851562 450.75 C 562.726562 450.75 534.523438 450.75 506.398438 450.75 C 478.273438 450.75 450.226562 450.75 422.101562 450.75 C 393.976562 450.75 365.773438 450.75 337.648438 450.75 C 309.523438 450.75 281.476562 450.75 253.351562 450.75 C 225.226562 450.75 197.023438 450.75 168.898438 450.75 C 140.773438 450.75 112.726562 450.75 84.601562 450.75 C 56.476562 450.75 28.273438 450.75 14.101562 450.75 L 0 450.75 Z M 0 340.5 " fill-opacity="1" fill-rule="nonzero"/><path fill="#001e2a" d="M 0 376.5 L 14.101562 380.773438 C 28.273438 384.976562 56.476562 393.523438 84.601562 399.601562 C 112.726562 405.75 140.773438 409.5 168.898438 408.75 C 197.023438 408 225.226562 402.75 253.351562 397.351562 C 281.476562 392.023438 309.523438 386.476562 337.648438 393.226562 C 365.773438 399.976562 393.976562 419.023438 422.101562 426.601562 C 450.226562 434.25 478.273438 430.5 506.398438 421.726562 C 534.523438 413.023438 562.726562 399.226562 590.851562 393.226562 C 618.976562 387.226562 647.023438 389.023438 660.976562 389.851562 L 675 390.75 L 675 450.75 L 660.976562 450.75 C 647.023438 450.75 618.976562 450.75 590.851562 450.75 C 562.726562 450.75 534.523438 450.75 506.398438 450.75 C 478.273438 450.75 450.226562 450.75 422.101562 450.75 C 393.976562 450.75 365.773438 450.75 337.648438 450.75 C 309.523438 450.75 281.476562 450.75 253.351562 450.75 C 225.226562 450.75 197.023438 450.75 168.898438 450.75 C 140.773438 450.75 112.726562 450.75 84.601562 450.75 C 56.476562 450.75 28.273438 450.75 14.101562 450.75 L 0 450.75 Z M 0 376.5 " fill-opacity="1" fill-rule="nonzero"/><g clip-path="url(#1468b4a77d)"><g clip-path="url(#2257ae119e)"><g clip-path="url(#b775cd5190)"><g clip-path="url(#46301decdf)"><g clip-path="url(#38b8ff6dca)"><path fill="#001e2a" d="M 402.191406 132.496094 L 604.84375 335.148438 L 807.496094 132.496094 L 604.84375 -70.15625 Z M 402.191406 132.496094 " fill-opacity="1" fill-rule="nonzero"/></g></g></g></g></g><g clip-path="url(#107e1c4709)"><g clip-path="url(#4198f72d2b)"><g clip-path="url(#b6752ef1ae)"><g clip-path="url(#803aca9317)"><g clip-path="url(#d4ba867ee0)"><path fill="#00a9de" d="M 504.058594 72.273438 L 625.664062 193.878906 L 747.273438 72.273438 L 625.664062 -49.335938 Z M 504.058594 72.273438 " fill-opacity="1" fill-rule="nonzero"/></g></g></g></g></g></svg>