<svg id="visual" viewBox="0 0 900 600" width="900" height="600" xmlns="http://www.w3.org/2000/svg" xmlns:xlink="http://www.w3.org/1999/xlink" version="1.1"><rect x="0" y="0" width="900" height="600" fill="#FFFFFF"></rect><path d="M515 600L523.3 583.3C531.7 566.7 548.3 533.3 556.5 500C564.7 466.7 564.3 433.3 556 400C547.7 366.7 531.3 333.3 547.3 300C563.3 266.7 611.7 233.3 624.7 200C637.7 166.7 615.3 133.3 617.3 100C619.3 66.7 645.7 33.3 658.8 16.7L672 0L900 0L900 16.7C900 33.3 900 66.7 900 100C900 133.3 900 166.7 900 200C900 233.3 900 266.7 900 300C900 333.3 900 366.7 900 400C900 433.3 900 466.7 900 500C900 533.3 900 566.7 900 583.3L900 600Z" fill="#001E2A" stroke-linecap="round" stroke-linejoin="miter"></path></svg>