<svg id="visual" viewBox="0 0 900 600" width="900" height="600" xmlns="http://www.w3.org/2000/svg" xmlns:xlink="http://www.w3.org/1999/xlink" version="1.1"><rect x="0" y="0" width="900" height="600" fill="#FFFFFF"></rect><path d="M543 600L544.7 588.8C546.3 577.7 549.7 555.3 559.3 533.2C569 511 585 489 593.7 466.8C602.3 444.7 603.7 422.3 595.8 400C588 377.7 571 355.3 577 333.2C583 311 612 289 626.5 266.8C641 244.7 641 222.3 621.5 200C602 177.7 563 155.3 556.5 133.2C550 111 576 89 594 66.8C612 44.7 622 22.3 627 11.2L632 0L900 0L900 11.2C900 22.3 900 44.7 900 66.8C900 89 900 111 900 133.2C900 155.3 900 177.7 900 200C900 222.3 900 244.7 900 266.8C900 289 900 311 900 333.2C900 355.3 900 377.7 900 400C900 422.3 900 444.7 900 466.8C900 489 900 511 900 533.2C900 555.3 900 577.7 900 588.8L900 600Z" fill="#02202d" stroke-linecap="round" stroke-linejoin="miter"></path></svg>